<svg id="Layer_1" height="512" viewBox="0 0 128 128" width="512" xmlns="http://www.w3.org/2000/svg" data-name="Layer 1"><path d="m98.75 121.5h-69.5l-5.058-93.75h79.616z" fill="#e6e9ed"/><path d="m18.5 18.667h91v12.641h-91z" fill="#ff826e"/><g fill="#0c2036"><path d="m27.547 91.747h.1a1.751 1.751 0 0 0 1.653-1.847l-.3-5.481a1.75 1.75 0 0 0 -3.5.188l.3 5.484a1.751 1.751 0 0 0 1.747 1.656z"/><path d="m102.6 50.253a1.752 1.752 0 0 0 -1.842 1.653l-3.666 67.844h-66.184l-1.125-20.85a1.75 1.75 0 0 0 -3.5.189l1.214 22.5a1.751 1.751 0 0 0 1.748 1.656h69.5a1.749 1.749 0 0 0 1.747-1.656l3.753-69.5a1.749 1.749 0 0 0 -1.645-1.836z"/><path d="m109.5 16.917h-9.875a1.75 1.75 0 0 0 0 3.5h8.125v9.141h-87.5v-9.141h23.816.034s.022 0 .034 0h39.733.033s.023 0 .034 0h7.5a1.75 1.75 0 0 0 0-3.5h-5.784v-10.417a1.75 1.75 0 0 0 -1.75-1.75h-39.8a1.751 1.751 0 0 0 -1.75 1.75v10.417h-23.85a1.75 1.75 0 0 0 -1.75 1.75v12.641a1.751 1.751 0 0 0 1.75 1.75h4.222l2.269 42.032a1.751 1.751 0 0 0 1.746 1.656q.048 0 .1 0a1.75 1.75 0 0 0 1.649-1.846l-2.259-41.842h75.547l-.452 8.361a1.751 1.751 0 0 0 1.653 1.842h.1a1.748 1.748 0 0 0 1.745-1.656l.462-8.549h4.218a1.75 1.75 0 0 0 1.75-1.75v-12.639a1.749 1.749 0 0 0 -1.75-1.75zm-63.65-8.667h36.3v8.667h-36.3z"/><path d="m48.417 94.809v-42.142a1.75 1.75 0 0 0 -3.5 0v42.142a1.75 1.75 0 0 0 3.5 0z"/><path d="m65.75 94.809v-42.142a1.75 1.75 0 0 0 -3.5 0v42.142a1.75 1.75 0 0 0 3.5 0z"/><path d="m83.083 94.809v-42.142a1.75 1.75 0 0 0 -3.5 0v42.142a1.75 1.75 0 0 0 3.5 0z"/></g></svg>