<?xml version="1.0" encoding="UTF-8" standalone="no"?>
<svg
   xmlns:dc="http://purl.org/dc/elements/1.1/"
   xmlns:cc="http://creativecommons.org/ns#"
   xmlns:rdf="http://www.w3.org/1999/02/22-rdf-syntax-ns#"
   xmlns:svg="http://www.w3.org/2000/svg"
   xmlns="http://www.w3.org/2000/svg"
   xmlns:sodipodi="http://sodipodi.sourceforge.net/DTD/sodipodi-0.dtd"
   xmlns:inkscape="http://www.inkscape.org/namespaces/inkscape"
   width="963pt"
   height="963pt"
   viewBox="0 0 963 963"
   version="1.1"
   id="svg989"
   sodipodi:docname="logo4.svg"
   inkscape:version="0.92.4 (5da689c313, 2019-01-14)">
  <metadata
     id="metadata995">
    <rdf:RDF>
      <cc:Work
         rdf:about="">
        <dc:format>image/svg+xml</dc:format>
        <dc:type
           rdf:resource="http://purl.org/dc/dcmitype/StillImage" />
        <dc:title></dc:title>
      </cc:Work>
    </rdf:RDF>
  </metadata>
  <defs
     id="defs993" />
  <sodipodi:namedview
     pagecolor="#ffffff"
     bordercolor="#666666"
     borderopacity="1"
     objecttolerance="10"
     gridtolerance="10"
     guidetolerance="10"
     inkscape:pageopacity="0"
     inkscape:pageshadow="2"
     inkscape:window-width="5120"
     inkscape:window-height="1417"
     id="namedview991"
     showgrid="false"
     inkscape:zoom="2.0794667"
     inkscape:cx="665.8751"
     inkscape:cy="985.67575"
     inkscape:window-x="-8"
     inkscape:window-y="-8"
     inkscape:window-maximized="1"
     inkscape:current-layer="svg989" />
  <path
     d="m 0,0 c 537.30476,116.67348 900.97487,139.68948 963,0 -90.08601,334.85939 0,642 0,963 C 631.61563,865.87563 315.33967,910.05924 0,963 0,642 142.97228,311.46851 0,0 Z"
     id="path741"
     inkscape:connector-curvature="0"
     style="opacity:1;fill:#fbc73f"
     sodipodi:nodetypes="ccccc"
     inkscape:export-xdpi="32"
     inkscape:export-ydpi="32" />
  <path
     fill="#8ac2e8"
     opacity="1.00"
     d=" M 310.89 147.87 C 422.17 90.93 562.02 96.62 669.02 160.95 C 724.42 193.86 773.09 240.57 803.56 297.53 C 786.60 272.55 769.72 247.07 748.32 225.63 C 708.57 187.88 661.93 156.42 610.18 137.76 C 490.22 91.62 347.70 114.33 247.33 194.37 C 159.17 262.24 109.78 371.90 103.33 481.27 C 101.25 342.64 187.02 208.72 310.89 147.87 Z"
     id="path743" />
  <path
     fill="#5aacdf"
     opacity="1.00"
     d=" M 247.33 194.37 C 347.70 114.33 490.22 91.62 610.18 137.76 C 661.93 156.42 708.57 187.88 748.32 225.63 C 769.72 247.07 786.60 272.55 803.56 297.53 C 804.59 298.92 805.42 300.49 805.85 302.19 C 805.96 303.25 806.52 303.96 807.55 304.33 C 808.51 305.77 809.29 307.33 809.98 308.93 C 812.04 314.31 814.47 319.59 817.67 324.40 C 818.56 325.83 819.23 327.39 819.74 329.01 C 820.31 331.30 821.34 333.44 822.66 335.40 C 823.24 336.30 823.64 337.28 823.85 338.34 C 823.91 339.76 824.53 341.05 825.48 342.11 C 826.17 343.01 826.66 344.01 826.95 345.11 C 827.14 345.60 827.53 346.59 827.73 347.08 C 828.26 348.05 828.66 349.08 828.93 350.17 C 829.17 350.65 829.64 351.61 829.88 352.09 L 829.95 353.01 C 830.13 353.51 830.51 354.52 830.70 355.03 C 831.24 356.02 831.66 357.07 831.94 358.17 C 832.17 358.66 832.64 359.62 832.88 360.10 L 832.95 361.05 C 833.17 361.56 833.61 362.56 833.83 363.06 L 833.95 364.04 C 834.17 364.55 834.61 365.56 834.83 366.06 L 834.95 367.04 C 835.17 367.54 835.61 368.55 835.83 369.05 L 835.95 369.99 C 836.13 370.50 836.49 371.53 836.66 372.04 C 837.26 373.67 837.84 375.36 837.96 377.13 C 838.18 377.62 838.63 378.60 838.85 379.09 L 838.94 380.03 C 839.16 380.53 839.61 381.52 839.83 382.01 C 839.86 382.52 839.93 383.55 839.97 384.06 C 840.19 384.55 840.62 385.54 840.84 386.03 C 840.87 386.54 840.94 387.55 840.97 388.06 C 841.19 388.55 841.62 389.54 841.84 390.03 C 841.87 390.54 841.94 391.55 841.97 392.06 C 842.19 392.55 842.62 393.54 842.84 394.03 C 842.87 394.54 842.94 395.55 842.97 396.06 C 843.19 396.55 843.62 397.54 843.84 398.03 C 843.87 398.56 843.92 399.60 843.94 400.13 C 843.73 401.20 843.97 402.16 844.68 403.02 C 844.75 403.52 844.90 404.53 844.98 405.04 C 845.19 405.54 845.62 406.53 845.84 407.03 C 845.87 407.55 845.92 408.60 845.94 409.12 C 845.72 410.18 845.96 411.14 846.66 411.99 C 846.73 412.77 846.88 414.34 846.95 415.13 C 846.70 416.21 846.94 417.18 847.66 418.04 L 848.00 418.85 L 847.98 420.01 C 847.73 421.14 847.98 422.16 848.74 423.06 C 848.80 423.76 848.94 425.17 849.01 425.87 C 848.75 427.28 848.95 428.73 849.55 430.04 C 849.71 430.74 850.01 432.14 850.17 432.85 C 849.51 434.28 849.61 436.01 850.87 437.12 C 850.95 438.38 851.05 439.66 851.16 440.93 C 851.33 442.46 851.67 445.52 851.84 447.05 C 851.94 449.00 852.06 450.95 852.19 452.91 C 851.52 454.65 851.55 456.63 852.75 458.15 L 852.87 458.95 C 851.33 459.36 851.30 461.58 852.89 461.95 C 852.91 465.50 853.02 469.13 853.32 472.69 C 853.15 477.22 853.23 481.81 853.65 486.35 C 853.70 623.92 771.47 757.91 648.01 819.02 C 632.52 826.75 616.62 833.79 600.19 839.26 C 599.61 839.40 598.45 839.70 597.86 839.84 C 494.67 875.12 376.28 861.88 283.22 804.98 C 283.15 803.50 282.38 802.82 280.91 802.92 C 213.96 763.10 161.75 700.19 131.34 628.74 L 131.06 628.04 C 129.96 624.83 128.67 621.70 127.24 618.63 L 127.05 617.84 C 126.82 617.36 126.36 616.39 126.12 615.91 L 126.06 615.00 C 125.87 614.50 125.47 613.50 125.27 613.00 C 124.26 612.19 123.83 611.16 123.99 609.90 C 123.78 609.40 123.37 608.41 123.17 607.91 L 123.05 606.99 C 122.87 606.49 122.50 605.48 122.31 604.97 C 121.68 603.70 120.90 602.37 121.02 600.91 C 120.80 600.42 120.37 599.44 120.15 598.96 C 120.13 598.44 120.09 597.41 120.07 596.90 C 120.33 595.83 120.12 594.86 119.44 594.00 C 119.15 593.51 118.56 592.52 118.27 592.03 L 118.06 591.03 C 117.84 590.53 117.40 589.52 117.18 589.01 C 117.15 588.48 117.09 587.41 117.06 586.88 C 117.27 585.81 117.04 584.85 116.39 584.00 C 114.36 578.17 112.16 572.07 112.04 565.85 C 112.26 564.77 112.02 563.81 111.32 562.98 C 111.25 562.46 111.12 561.42 111.05 560.90 C 111.26 559.83 111.06 558.86 110.43 557.98 C 109.50 555.73 108.73 553.32 109.04 550.86 C 109.27 549.79 109.04 548.84 108.35 548.01 C 108.27 547.22 108.11 545.65 108.03 544.87 C 108.26 543.80 108.04 542.85 107.35 542.01 C 106.96 540.65 106.85 539.26 107.03 537.85 C 107.27 536.79 107.05 535.84 106.35 535.02 C 105.98 533.62 105.86 532.20 106.00 530.76 C 106.19 529.18 105.99 527.60 105.51 526.10 C 105.19 524.66 105.03 523.20 105.04 521.74 C 104.90 520.35 104.63 517.58 104.49 516.20 C 104.22 514.46 104.04 512.72 104.01 510.98 C 103.97 507.50 103.98 504.07 103.45 500.65 C 103.02 494.22 102.29 487.66 103.33 481.27 C 109.78 371.90 159.17 262.24 247.33 194.37 Z"
     id="path745" />
  <path
     fill="#8ac2e8"
     opacity="1.00"
     d=" M 444.47 122.50 C 451.45 123.30 462.88 118.79 467.96 124.08 C 463.94 131.54 449.02 131.39 448.19 142.25 C 436.96 150.04 420.98 142.66 408.89 149.87 C 375.74 153.83 349.47 179.44 316.40 181.77 C 310.60 173.68 299.73 180.57 292.01 176.87 C 304.78 160.95 325.52 153.65 343.87 145.81 C 376.07 133.23 410.06 125.63 444.47 122.50 Z"
     id="path747" />
  <path
     fill="#8ac2e8"
     opacity="1.00"
     d=" M 589.92 141.95 C 592.87 142.73 596.43 143.24 598.19 146.05 C 595.40 145.37 590.24 145.54 589.92 141.95 Z"
     id="path749" />
  <path
     fill="#8ac2e8"
     opacity="1.00"
     d=" M 455.33 159.53 C 468.63 160.25 483.03 158.52 495.40 164.57 C 506.84 170.84 519.05 162.62 530.97 164.05 C 572.47 170.84 612.92 185.75 648.05 208.94 C 655.53 212.22 653.36 219.84 651.73 225.96 C 645.80 227.07 640.32 221.91 634.61 223.54 C 620.94 232.68 600.54 228.12 589.46 216.60 C 587.30 210.77 581.31 214.31 577.03 215.30 C 580.09 224.93 594.03 222.72 601.03 227.94 C 606.89 231.80 622.94 237.65 613.43 245.67 C 601.59 244.41 591.52 236.47 580.28 232.77 C 566.78 230.63 554.51 223.34 540.77 223.02 C 543.91 224.93 547.81 225.85 549.84 229.20 C 559.66 226.54 572.83 233.51 578.95 241.99 C 580.37 251.06 593.74 253.04 589.97 263.86 C 575.16 262.35 590.86 267.62 592.96 273.04 C 592.75 276.53 587.50 272.35 587.15 275.00 C 587.53 279.79 581.47 279.00 578.99 281.86 C 572.71 278.87 564.82 273.32 563.04 266.37 C 568.56 266.22 564.31 262.48 562.69 260.29 C 567.80 260.67 572.93 261.25 578.02 261.98 C 573.37 257.83 571.81 250.40 564.87 249.18 C 555.73 247.86 554.48 235.43 544.19 236.09 C 534.62 247.09 520.42 237.30 517.93 226.00 C 519.25 218.82 529.11 221.69 534.26 220.82 C 528.86 217.22 509.48 216.58 518.71 205.65 C 531.67 204.17 546.61 210.37 558.92 208.76 C 560.40 198.41 550.58 208.92 546.48 202.61 C 547.15 195.58 527.16 195.12 540.12 192.67 C 536.55 191.02 535.35 188.37 537.78 184.98 C 506.79 171.88 468.92 177.16 434.96 179.82 C 410.82 180.44 388.14 189.40 366.06 198.19 C 364.89 203.61 373.92 200.24 377.21 202.43 C 395.43 197.37 412.09 210.87 430.12 204.16 C 444.13 202.28 462.61 195.94 474.48 205.55 C 480.95 211.98 469.45 212.38 465.87 215.61 C 469.36 216.83 477.68 217.64 474.10 223.06 C 469.72 228.61 461.64 224.79 455.86 224.78 C 444.77 228.58 429.96 225.04 423.62 237.63 C 411.22 246.92 412.67 263.11 410.94 276.94 C 409.50 281.53 398.54 282.38 403.86 288.10 C 399.65 298.06 386.62 293.37 378.79 298.06 C 381.60 294.85 386.77 294.75 389.18 290.93 C 382.54 290.65 372.73 300.74 368.43 292.48 C 362.27 287.57 355.12 279.93 357.99 271.15 C 344.99 270.59 344.76 256.59 349.02 247.22 C 341.05 249.74 336.27 237.81 341.88 232.98 C 344.58 230.27 339.53 229.41 338.06 227.90 C 332.86 224.13 340.19 217.72 339.29 213.61 C 329.96 212.05 320.92 222.81 311.73 220.29 C 304.80 216.11 315.57 211.86 314.55 206.29 C 331.39 189.27 357.14 180.72 380.54 176.15 C 381.85 178.64 381.95 183.16 387.02 180.00 C 402.52 180.09 416.30 172.32 431.01 168.65 C 430.45 167.37 429.74 166.18 429.13 164.93 C 437.63 162.25 446.47 160.48 455.33 159.53 Z"
     id="path751" />
  <path
     fill="#5aacdf"
     opacity="1.00"
     d=" M 544.24 192.19 C 552.42 191.89 540.83 198.12 544.24 192.19 Z"
     id="path753" />
  <path
     fill="#8ac2e8"
     opacity="1.00"
     d=" M 805.85 302.19 C 807.53 301.97 808.10 302.68 807.55 304.33 C 806.52 303.96 805.96 303.25 805.85 302.19 Z"
     id="path755" />
  <path
     fill="#8ac2e8"
     opacity="1.00"
     d=" M 809.98 308.93 C 813.48 313.35 816.95 318.68 817.67 324.40 C 814.47 319.59 812.04 314.31 809.98 308.93 Z"
     id="path757" />
  <path
     fill="#8ac2e8"
     opacity="1.00"
     d=" M 819.74 329.01 C 821.91 330.28 822.72 333.02 822.66 335.40 C 821.34 333.44 820.31 331.30 819.74 329.01 Z"
     id="path759" />
  <path
     fill="#8ac2e8"
     opacity="1.00"
     d=" M 823.85 338.34 C 825.65 337.75 826.78 340.99 825.48 342.11 C 824.53 341.05 823.91 339.76 823.85 338.34 Z"
     id="path761" />
  <path
     fill="#8ac2e8"
     opacity="1.00"
     d=" M 826.95 345.11 C 827.14 345.60 827.53 346.59 827.73 347.08 C 827.53 346.59 827.14 345.60 826.95 345.11 Z"
     id="path763" />
  <path
     fill="#8ac2e8"
     opacity="1.00"
     d=" M 828.93 350.17 C 829.17 350.65 829.64 351.61 829.88 352.09 C 829.64 351.61 829.17 350.65 828.93 350.17 Z"
     id="path765" />
  <path
     fill="#8ac2e8"
     opacity="1.00"
     d=" M 467.01 351.96 C 471.29 350.62 483.75 349.72 487.99 351.95 C 480.98 352.00 474.00 352.09 467.01 351.96 Z"
     id="path767" />
  <path
     fill="#8ac2e8"
     opacity="1.00"
     d=" M 458.19 353.02 C 458.02 351.18 461.19 351.18 461.95 352.48 C 460.76 352.99 459.47 353.19 458.19 353.02 Z"
     id="path769" />
  <path
     d=" M 461.95 352.48 C 463.57 351.95 465.31 351.97 467.01 351.96 C 474.00 352.09 480.98 352.00 487.99 351.95 C 489.68 351.97 491.41 351.96 493.05 352.48 C 494.23 352.99 495.51 353.20 496.80 353.02 C 497.60 353.06 499.19 353.14 499.98 353.18 C 500.47 353.39 501.45 353.81 501.94 354.02 C 502.70 354.06 504.22 354.14 504.98 354.18 C 505.47 354.39 506.45 354.81 506.94 355.02 C 507.70 355.06 509.22 355.13 509.98 355.16 C 510.46 355.39 511.43 355.83 511.91 356.06 C 513.65 356.14 515.32 356.73 516.96 357.33 C 517.47 357.51 518.48 357.87 518.99 358.05 L 519.91 358.12 C 520.39 358.36 521.35 358.83 521.83 359.07 C 522.91 359.32 523.94 359.72 524.93 360.27 C 525.41 360.48 526.39 360.89 526.88 361.09 C 534.35 364.46 541.72 368.19 548.82 372.31 C 549.30 373.17 550.01 373.73 550.97 374.01 C 552.71 374.89 554.37 375.98 555.86 377.26 C 556.32 378.15 557.04 378.71 558.03 378.94 C 558.51 379.29 559.46 380.00 559.94 380.35 C 560.75 381.36 561.72 382.24 562.86 382.89 C 565.10 384.48 567.15 386.35 569.02 388.40 C 570.10 389.69 571.29 390.90 572.59 391.99 C 574.89 394.22 577.37 396.40 579.13 399.13 C 579.74 400.27 580.61 401.23 581.59 402.09 C 593.22 417.76 602.26 435.85 605.96 455.08 C 606.18 455.56 606.61 456.53 606.83 457.02 C 606.87 457.78 606.94 459.30 606.98 460.06 C 607.19 460.55 607.60 461.52 607.81 462.01 C 608.04 463.38 608.09 464.76 607.96 466.15 C 607.72 467.19 607.94 468.13 608.64 468.97 C 609.20 472.67 609.02 476.52 609.04 480.28 C 609.05 481.89 609.06 485.11 609.06 486.72 C 608.94 490.10 609.42 493.65 608.64 497.01 C 607.95 497.84 607.73 498.79 607.96 499.85 C 606.68 521.47 597.11 542.41 584.76 559.87 C 583.84 560.32 583.28 561.03 583.06 562.02 C 582.75 562.49 582.13 563.43 581.81 563.90 C 580.88 564.31 580.29 565.01 580.04 565.99 C 579.58 567.08 578.73 567.96 577.90 568.79 C 575.72 570.67 573.50 572.57 571.90 575.00 C 571.14 576.15 570.15 577.13 568.99 577.89 C 566.97 579.24 565.31 581.03 563.74 582.86 C 562.61 584.04 561.48 585.32 559.98 586.03 C 559.00 586.29 558.31 586.89 557.90 587.82 C 557.43 588.13 556.49 588.75 556.02 589.06 C 555.04 589.28 554.32 589.85 553.88 590.76 C 540.86 600.24 525.74 607.77 509.91 610.97 C 509.42 611.19 508.45 611.63 507.96 611.85 C 507.44 611.87 506.40 611.92 505.88 611.94 C 504.80 611.73 503.85 611.97 503.01 612.66 C 502.24 612.74 500.71 612.91 499.95 612.99 C 499.46 613.19 498.47 613.59 497.98 613.79 C 495.95 614.15 493.88 614.11 491.85 613.95 C 490.79 613.70 489.85 613.93 489.03 614.65 C 481.42 615.14 473.57 615.53 465.99 614.65 C 465.15 613.96 464.20 613.73 463.15 613.96 C 439.34 612.40 415.76 602.51 397.14 587.75 C 396.68 586.85 395.97 586.28 395.01 586.03 C 393.50 585.32 392.38 584.03 391.26 582.86 C 389.68 581.03 388.02 579.24 386.01 577.89 C 384.84 577.13 383.86 576.15 383.11 574.99 C 381.75 572.97 379.97 571.31 378.14 569.74 C 376.95 568.61 375.67 567.48 374.97 565.98 C 374.70 565.00 374.10 564.31 373.18 563.90 C 372.87 563.43 372.25 562.49 371.94 562.02 C 371.71 561.03 371.14 560.32 370.24 559.88 C 364.43 552.41 359.15 543.83 356.02 534.93 C 355.83 534.43 355.44 533.45 355.25 532.96 C 353.60 528.78 350.84 524.57 351.01 519.93 C 350.80 519.44 350.38 518.45 350.17 517.96 C 350.13 517.46 350.06 516.47 350.02 515.97 C 349.85 515.46 349.50 514.45 349.32 513.94 C 348.48 511.71 347.79 509.34 348.02 506.94 C 347.81 506.45 347.40 505.48 347.19 504.99 C 346.97 503.59 346.91 502.19 347.02 500.79 C 347.22 499.51 346.99 498.24 346.48 497.07 C 346.35 495.31 346.11 491.77 345.99 490.01 C 345.99 485.64 346.03 481.31 345.98 476.98 C 345.71 474.26 345.83 471.59 346.35 468.99 C 347.04 468.15 347.27 467.20 347.03 466.15 C 346.85 464.73 346.96 463.34 347.35 461.98 C 348.02 461.13 348.26 460.18 348.06 459.12 C 348.08 458.60 348.13 457.56 348.15 457.04 C 348.37 456.55 348.81 455.58 349.03 455.10 C 349.42 451.67 350.15 448.31 351.22 445.03 C 351.43 444.54 351.83 443.57 352.04 443.08 C 353.34 437.21 356.31 431.81 358.28 426.13 C 359.18 425.69 359.76 424.99 360.02 424.04 C 361.00 421.70 362.10 419.40 363.33 417.18 C 364.18 416.68 364.74 415.96 365.00 415.02 C 366.75 411.54 368.74 408.11 371.22 405.12 C 372.13 404.67 372.71 403.95 372.94 402.98 C 373.31 402.48 374.03 401.49 374.39 400.99 C 375.71 399.90 376.96 398.71 377.81 397.20 C 378.51 396.13 379.25 395.08 380.13 394.14 C 382.85 391.48 385.64 388.90 388.23 386.11 C 389.41 384.90 390.71 383.78 392.14 382.88 C 393.29 382.25 394.24 381.36 395.06 380.35 C 395.54 380.00 396.50 379.29 396.98 378.94 C 397.96 378.70 398.67 378.12 399.10 377.20 C 399.58 376.88 400.53 376.24 401.01 375.92 C 402.00 375.68 402.70 375.09 403.13 374.16 L 403.87 373.92 C 404.86 373.75 405.63 373.23 406.18 372.38 C 408.65 370.68 411.27 369.17 414.03 368.00 C 414.99 367.73 415.69 367.15 416.12 366.24 C 421.69 363.63 427.29 360.91 433.19 359.12 C 433.67 358.87 434.61 358.37 435.08 358.11 L 436.01 358.06 C 436.51 357.85 437.50 357.44 438.00 357.23 C 441.29 356.16 444.65 355.42 448.10 355.03 C 448.58 354.81 449.56 354.37 450.04 354.15 C 450.56 354.13 451.60 354.08 452.12 354.06 C 453.18 354.26 454.14 354.02 454.99 353.34 C 455.79 353.26 457.39 353.10 458.19 353.02 C 459.47 353.19 460.76 352.99 461.95 352.48 Z"
     id="path771"
     fill="#fbc73f"
     opacity="1.00" />
  <path
     fill="#8ac2e8"
     opacity="1.00"
     d=" M 493.05 352.48 C 493.79 351.18 496.96 351.18 496.80 353.02 C 495.51 353.20 494.23 352.99 493.05 352.48 Z"
     id="path773" />
  <path
     fill="#8ac2e8"
     opacity="1.00"
     d=" M 452.12 354.06 C 452.60 352.45 453.56 352.21 454.99 353.34 C 454.14 354.02 453.18 354.26 452.12 354.06 Z"
     id="path775" />
  <path
     fill="#8ac2e8"
     opacity="1.00"
     d=" M 499.98 353.18 C 500.47 353.39 501.45 353.81 501.94 354.02 C 501.45 353.81 500.47 353.39 499.98 353.18 Z"
     id="path777" />
  <path
     fill="#8ac2e8"
     opacity="1.00"
     d=" M 829.95 353.01 C 830.13 353.51 830.51 354.52 830.70 355.03 C 830.51 354.52 830.13 353.51 829.95 353.01 Z"
     id="path779" />
  <path
     fill="#8ac2e8"
     opacity="1.00"
     d=" M 448.10 355.03 C 448.58 354.81 449.56 354.37 450.04 354.15 C 449.56 354.37 448.58 354.81 448.10 355.03 Z"
     id="path781" />
  <path
     fill="#8ac2e8"
     opacity="1.00"
     d=" M 504.98 354.18 C 505.47 354.39 506.45 354.81 506.94 355.02 C 506.45 354.81 505.47 354.39 504.98 354.18 Z"
     id="path783" />
  <path
     fill="#8ac2e8"
     opacity="1.00"
     d=" M 509.98 355.16 C 510.46 355.39 511.43 355.83 511.91 356.06 C 511.43 355.83 510.46 355.39 509.98 355.16 Z"
     id="path785" />
  <path
     fill="#8ac2e8"
     opacity="1.00"
     d=" M 436.01 358.06 C 436.51 357.85 437.50 357.44 438.00 357.23 C 437.50 357.44 436.51 357.85 436.01 358.06 Z"
     id="path787" />
  <path
     fill="#8ac2e8"
     opacity="1.00"
     d=" M 516.96 357.33 C 517.47 357.51 518.48 357.87 518.99 358.05 C 518.48 357.87 517.47 357.51 516.96 357.33 Z"
     id="path789" />
  <path
     fill="#8ac2e8"
     opacity="1.00"
     d=" M 433.19 359.12 C 433.67 358.87 434.61 358.37 435.08 358.11 C 434.61 358.37 433.67 358.87 433.19 359.12 Z"
     id="path791" />
  <path
     fill="#8ac2e8"
     opacity="1.00"
     d=" M 519.91 358.12 C 520.39 358.36 521.35 358.83 521.83 359.07 C 521.35 358.83 520.39 358.36 519.91 358.12 Z"
     id="path793" />
  <path
     fill="#8ac2e8"
     opacity="1.00"
     d=" M 831.94 358.17 C 832.17 358.66 832.64 359.62 832.88 360.10 C 832.64 359.62 832.17 358.66 831.94 358.17 Z"
     id="path795" />
  <path
     fill="#8ac2e8"
     opacity="1.00"
     d=" M 524.93 360.27 C 525.41 360.48 526.39 360.89 526.88 361.09 C 526.39 360.89 525.41 360.48 524.93 360.27 Z"
     id="path797" />
  <path
     fill="#8ac2e8"
     opacity="1.00"
     d=" M 832.95 361.05 C 833.17 361.56 833.61 362.56 833.83 363.06 C 833.61 362.56 833.17 361.56 832.95 361.05 Z"
     id="path799" />
  <path
     fill="#8ac2e8"
     opacity="1.00"
     d=" M 833.95 364.04 C 834.17 364.55 834.61 365.56 834.83 366.06 C 834.61 365.56 834.17 364.55 833.95 364.04 Z"
     id="path801" />
  <path
     fill="#8ac2e8"
     opacity="1.00"
     d=" M 414.03 368.00 C 413.69 366.22 414.39 365.63 416.12 366.24 C 415.69 367.15 414.99 367.73 414.03 368.00 Z"
     id="path803" />
  <path
     fill="#8ac2e8"
     opacity="1.00"
     d=" M 834.95 367.04 C 835.17 367.54 835.61 368.55 835.83 369.05 C 835.61 368.55 835.17 367.54 834.95 367.04 Z"
     id="path805" />
  <path
     fill="#8ac2e8"
     opacity="1.00"
     d=" M 835.95 369.99 C 836.13 370.50 836.49 371.53 836.66 372.04 C 836.49 371.53 836.13 370.50 835.95 369.99 Z"
     id="path807" />
  <path
     fill="#8ac2e8"
     opacity="1.00"
     d=" M 403.87 373.92 C 403.72 372.13 404.50 371.62 406.18 372.38 C 405.63 373.23 404.86 373.75 403.87 373.92 Z"
     id="path809" />
  <path
     fill="#8ac2e8"
     opacity="1.00"
     d=" M 548.82 372.31 C 550.55 371.64 551.26 372.20 550.97 374.01 C 550.01 373.73 549.30 373.17 548.82 372.31 Z"
     id="path811" />
  <path
     fill="#8ac2e8"
     opacity="1.00"
     d=" M 401.01 375.92 C 400.70 374.17 401.41 373.58 403.13 374.16 C 402.70 375.09 402.00 375.68 401.01 375.92 Z"
     id="path813" />
  <path
     fill="#8ac2e8"
     opacity="1.00"
     d=" M 396.98 378.94 C 396.68 377.18 397.38 376.60 399.10 377.20 C 398.67 378.12 397.96 378.70 396.98 378.94 Z"
     id="path815" />
  <path
     fill="#8ac2e8"
     opacity="1.00"
     d=" M 555.86 377.26 C 557.57 376.60 558.29 377.16 558.03 378.94 C 557.04 378.71 556.32 378.15 555.86 377.26 Z"
     id="path817" />
  <path
     fill="#8ac2e8"
     opacity="1.00"
     d=" M 837.96 377.13 C 838.18 377.62 838.63 378.60 838.85 379.09 C 838.63 378.60 838.18 377.62 837.96 377.13 Z"
     id="path819" />
  <path
     fill="#8ac2e8"
     opacity="1.00"
     d=" M 392.14 382.88 C 390.84 381.27 393.62 378.92 395.06 380.35 C 394.24 381.36 393.29 382.25 392.14 382.88 Z"
     id="path821" />
  <path
     fill="#8ac2e8"
     opacity="1.00"
     d=" M 559.94 380.35 C 561.37 378.91 564.16 381.27 562.86 382.89 C 561.72 382.24 560.75 381.36 559.94 380.35 Z"
     id="path823" />
  <path
     fill="#8ac2e8"
     opacity="1.00"
     d=" M 838.94 380.03 C 839.16 380.53 839.61 381.52 839.83 382.01 C 839.61 381.52 839.16 380.53 838.94 380.03 Z"
     id="path825" />
  <path
     fill="#8ac2e8"
     opacity="1.00"
     d=" M 839.97 384.06 C 840.19 384.55 840.62 385.54 840.84 386.03 C 840.62 385.54 840.19 384.55 839.97 384.06 Z"
     id="path827" />
  <path
     fill="#8ac2e8"
     opacity="1.00"
     d=" M 380.13 394.14 C 381.43 390.69 384.23 386.49 388.23 386.11 C 385.64 388.90 382.85 391.48 380.13 394.14 Z"
     id="path829" />
  <path
     fill="#8ac2e8"
     opacity="1.00"
     d=" M 569.02 388.40 C 570.99 387.08 573.91 390.01 572.59 391.99 C 571.29 390.90 570.10 389.69 569.02 388.40 Z"
     id="path831" />
  <path
     fill="#8ac2e8"
     opacity="1.00"
     d=" M 840.97 388.06 C 841.19 388.55 841.62 389.54 841.84 390.03 C 841.62 389.54 841.19 388.55 840.97 388.06 Z"
     id="path833" />
  <path
     fill="#8ac2e8"
     opacity="1.00"
     d=" M 841.97 392.06 C 842.19 392.55 842.62 393.54 842.84 394.03 C 842.62 393.54 842.19 392.55 841.97 392.06 Z"
     id="path835" />
  <path
     fill="#8ac2e8"
     opacity="1.00"
     d=" M 842.97 396.06 C 843.19 396.55 843.62 397.54 843.84 398.03 C 843.62 397.54 843.19 396.55 842.97 396.06 Z"
     id="path837" />
  <path
     fill="#8ac2e8"
     opacity="1.00"
     d=" M 374.39 400.99 C 373.14 399.10 375.83 396.16 377.81 397.20 C 376.96 398.71 375.71 399.90 374.39 400.99 Z"
     id="path839" />
  <path
     fill="#8ac2e8"
     opacity="1.00"
     d=" M 579.13 399.13 C 580.76 397.82 583.07 400.67 581.59 402.09 C 580.61 401.23 579.74 400.27 579.13 399.13 Z"
     id="path841" />
  <path
     fill="#8ac2e8"
     opacity="1.00"
     d=" M 843.94 400.13 C 845.53 400.62 845.78 401.58 844.68 403.02 C 843.97 402.16 843.73 401.20 843.94 400.13 Z"
     id="path843" />
  <path
     fill="#8ac2e8"
     opacity="1.00"
     d=" M 371.22 405.12 C 370.60 403.40 371.17 402.68 372.94 402.98 C 372.71 403.95 372.13 404.67 371.22 405.12 Z"
     id="path845" />
  <path
     fill="#8ac2e8"
     opacity="1.00"
     d=" M 844.98 405.04 C 845.19 405.54 845.62 406.53 845.84 407.03 C 845.62 406.53 845.19 405.54 844.98 405.04 Z"
     id="path847" />
  <path
     fill="#8ac2e8"
     opacity="1.00"
     d=" M 845.94 409.12 C 847.54 409.60 847.78 410.56 846.66 411.99 C 845.96 411.14 845.72 410.18 845.94 409.12 Z"
     id="path849" />
  <path
     fill="#8ac2e8"
     opacity="1.00"
     d=" M 363.33 417.18 C 362.64 415.44 363.19 414.72 365.00 415.02 C 364.74 415.96 364.18 416.68 363.33 417.18 Z"
     id="path851" />
  <path
     fill="#8ac2e8"
     opacity="1.00"
     d=" M 846.95 415.13 C 847.26 415.69 847.88 416.80 848.19 417.36 L 847.66 418.04 C 846.94 417.18 846.70 416.21 846.95 415.13 Z"
     id="path853" />
  <path
     fill="#ca8b1e"
     opacity="1.00"
     d=" M 848.19 417.36 C 849.61 417.95 849.55 418.44 848.00 418.85 L 847.66 418.04 L 848.19 417.36 Z"
     id="path855" />
  <path
     fill="#8ac2e8"
     opacity="1.00"
     d=" M 847.98 420.01 C 848.29 420.62 848.90 421.84 849.20 422.45 L 848.74 423.06 C 847.98 422.16 847.73 421.14 847.98 420.01 Z"
     id="path857" />
  <path
     fill="#ca8b1e"
     opacity="1.00"
     d=" M 849.20 422.45 C 850.75 422.48 850.36 425.14 849.57 425.94 L 849.01 425.87 C 848.94 425.17 848.80 423.76 848.74 423.06 L 849.20 422.45 Z"
     id="path859" />
  <path
     fill="#8ac2e8"
     opacity="1.00"
     d=" M 358.28 426.13 C 357.65 424.40 358.24 423.70 360.02 424.04 C 359.76 424.99 359.18 425.69 358.28 426.13 Z"
     id="path861" />
  <path
     fill="#8ac2e8"
     opacity="1.00"
     d=" M 849.01 425.87 L 849.57 425.94 C 849.76 426.55 850.14 427.75 850.33 428.36 C 850.14 428.78 849.75 429.62 849.55 430.04 C 848.95 428.73 848.75 427.28 849.01 425.87 Z"
     id="path863" />
  <path
     fill="#ca8b1e"
     opacity="1.00"
     d=" M 850.33 428.36 C 854.01 436.56 856.03 452.59 857.14 463.94 C 872.43 608.38 793.15 757.58 665.39 826.43 C 549.17 890.52 399.11 884.39 287.04 813.92 C 224.11 775.36 171.20 719.11 140.13 651.88 C 137.83 644.03 131.65 636.89 131.34 628.74 C 161.75 700.19 213.96 763.10 280.91 802.92 C 281.11 804.22 281.88 804.91 283.22 804.98 C 376.28 861.88 494.67 875.12 597.86 839.84 C 598.45 839.70 599.61 839.40 600.19 839.26 C 616.62 833.79 632.52 826.75 648.01 819.02 C 771.47 757.91 853.70 623.92 853.65 486.35 C 853.81 481.78 853.84 477.22 853.32 472.69 C 853.02 469.13 852.91 465.50 852.89 461.95 C 852.89 461.20 852.88 459.70 852.87 458.95 L 852.75 458.15 C 853.45 456.41 853.48 454.38 852.19 452.91 C 852.06 450.95 851.94 449.00 851.84 447.05 C 851.67 445.52 851.33 442.46 851.16 440.93 C 851.05 439.66 850.95 438.38 850.87 437.12 C 851.46 435.66 851.36 433.96 850.17 432.85 C 850.01 432.14 849.71 430.74 849.55 430.04 C 849.75 429.62 850.14 428.78 850.33 428.36 Z"
     id="path865" />
  <path
     fill="#8ac2e8"
     opacity="1.00"
     d=" M 850.17 432.85 C 851.36 433.96 851.46 435.66 850.87 437.12 C 849.61 436.01 849.51 434.28 850.17 432.85 Z"
     id="path867" />
  <path
     fill="#8ac2e8"
     opacity="1.00"
     d=" M 851.16 440.93 C 851.33 442.46 851.67 445.52 851.84 447.05 C 851.67 445.52 851.33 442.46 851.16 440.93 Z"
     id="path869" />
  <path
     fill="#8ac2e8"
     opacity="1.00"
     d=" M 351.22 445.03 C 351.43 444.54 351.83 443.57 352.04 443.08 C 351.83 443.57 351.43 444.54 351.22 445.03 Z"
     id="path871" />
  <path
     fill="#8ac2e8"
     opacity="1.00"
     d=" M 852.19 452.91 C 853.48 454.38 853.45 456.41 852.75 458.15 C 851.55 456.63 851.52 454.65 852.19 452.91 Z"
     id="path873" />
  <path
     fill="#8ac2e8"
     opacity="1.00"
     d=" M 348.15 457.04 C 348.37 456.55 348.81 455.58 349.03 455.10 C 348.81 455.58 348.37 456.55 348.15 457.04 Z"
     id="path875" />
  <path
     fill="#8ac2e8"
     opacity="1.00"
     d=" M 605.96 455.08 C 606.18 455.56 606.61 456.53 606.83 457.02 C 606.61 456.53 606.18 455.56 605.96 455.08 Z"
     id="path877" />
  <path
     fill="#8ac2e8"
     opacity="1.00"
     d=" M 347.35 461.98 C 346.21 460.55 346.44 459.60 348.06 459.12 C 348.26 460.18 348.02 461.13 347.35 461.98 Z"
     id="path879" />
  <path
     fill="#8ac2e8"
     opacity="1.00"
     d=" M 852.89 461.95 C 851.30 461.58 851.33 459.36 852.87 458.95 C 852.88 459.70 852.89 461.20 852.89 461.95 Z"
     id="path881" />
  <path
     fill="#8ac2e8"
     opacity="1.00"
     d=" M 606.98 460.06 C 607.19 460.55 607.60 461.52 607.81 462.01 C 607.60 461.52 607.19 460.55 606.98 460.06 Z"
     id="path883" />
  <path
     fill="#8ac2e8"
     opacity="1.00"
     d=" M 346.35 468.99 C 345.20 467.58 345.43 466.63 347.03 466.15 C 347.27 467.20 347.04 468.15 346.35 468.99 Z"
     id="path885" />
  <path
     fill="#8ac2e8"
     opacity="1.00"
     d=" M 607.96 466.15 C 609.56 466.62 609.79 467.56 608.64 468.97 C 607.94 468.13 607.72 467.19 607.96 466.15 Z"
     id="path887" />
  <path
     fill="#8ac2e8"
     opacity="1.00"
     d=" M 853.32 472.69 C 853.84 477.22 853.81 481.78 853.65 486.35 C 853.23 481.81 853.15 477.22 853.32 472.69 Z"
     id="path889" />
  <path
     fill="#3c3025"
     opacity="1.00"
     d=" M 469.31 487.00 C 466.66 480.55 473.41 474.02 479.80 475.99 C 481.43 477.47 483.04 478.98 484.68 480.45 C 491.66 489.31 476.08 498.32 470.88 489.98 C 470.56 488.88 470.02 487.88 469.31 487.00 Z"
     id="path891" />
  <path
     fill="#ca8b1e"
     opacity="1.00"
     d=" M 479.80 475.99 C 482.87 475.22 483.97 478.05 484.68 480.45 C 483.04 478.98 481.43 477.47 479.80 475.99 Z"
     id="path893" />
  <path
     fill="#8ac2e8"
     opacity="1.00"
     d=" M 345.99 490.01 C 344.57 488.33 343.53 479.02 345.98 476.98 C 346.03 481.31 345.99 485.64 345.99 490.01 Z"
     id="path895" />
  <path
     fill="#8ac2e8"
     opacity="1.00"
     d=" M 609.04 480.28 C 610.95 481.05 610.96 485.92 609.06 486.72 C 609.06 485.11 609.05 481.89 609.04 480.28 Z"
     id="path897" />
  <path
     fill="#ca8b1e"
     opacity="1.00"
     d=" M 469.31 487.00 C 470.02 487.88 470.56 488.88 470.88 489.98 C 469.16 491.01 467.82 487.97 469.31 487.00 Z"
     id="path899" />
  <path
     fill="#8ac2e8"
     opacity="1.00"
     d=" M 346.48 497.07 C 346.99 498.24 347.22 499.51 347.02 500.79 C 345.18 500.97 345.17 497.80 346.48 497.07 Z"
     id="path901" />
  <path
     fill="#8ac2e8"
     opacity="1.00"
     d=" M 607.96 499.85 C 607.73 498.79 607.95 497.84 608.64 497.01 C 609.79 498.41 609.56 499.36 607.96 499.85 Z"
     id="path903" />
  <path
     fill="#8ac2e8"
     opacity="1.00"
     d=" M 103.45 500.65 C 103.98 504.07 103.97 507.50 104.01 510.98 C 100.99 510.20 103.62 503.50 103.45 500.65 Z"
     id="path905" />
  <path
     fill="#8ac2e8"
     opacity="1.00"
     d=" M 347.19 504.99 C 347.40 505.48 347.81 506.45 348.02 506.94 C 347.81 506.45 347.40 505.48 347.19 504.99 Z"
     id="path907" />
  <path
     fill="#8ac2e8"
     opacity="1.00"
     d=" M 349.32 513.94 C 349.50 514.45 349.85 515.46 350.02 515.97 C 349.85 515.46 349.50 514.45 349.32 513.94 Z"
     id="path909" />
  <path
     fill="#8ac2e8"
     opacity="1.00"
     d=" M 104.49 516.20 C 104.63 517.58 104.90 520.35 105.04 521.74 C 102.79 521.51 103.01 517.39 104.49 516.20 Z"
     id="path911" />
  <path
     fill="#8ac2e8"
     opacity="1.00"
     d=" M 350.17 517.96 C 350.38 518.45 350.80 519.44 351.01 519.93 C 350.80 519.44 350.38 518.45 350.17 517.96 Z"
     id="path913" />
  <path
     fill="#8ac2e8"
     opacity="1.00"
     d=" M 105.51 526.10 C 105.99 527.60 106.19 529.18 106.00 530.76 C 104.01 530.66 104.26 527.11 105.51 526.10 Z"
     id="path915" />
  <path
     fill="#8ac2e8"
     opacity="1.00"
     d=" M 355.25 532.96 C 355.44 533.45 355.83 534.43 356.02 534.93 C 355.83 534.43 355.44 533.45 355.25 532.96 Z"
     id="path917" />
  <path
     fill="#8ac2e8"
     opacity="1.00"
     d=" M 106.35 535.02 C 107.05 535.84 107.27 536.79 107.03 537.85 C 105.43 537.36 105.21 536.41 106.35 535.02 Z"
     id="path919" />
  <path
     fill="#8ac2e8"
     opacity="1.00"
     d=" M 107.35 542.01 C 108.04 542.85 108.26 543.80 108.03 544.87 C 106.43 544.36 106.20 543.41 107.35 542.01 Z"
     id="path921" />
  <path
     fill="#8ac2e8"
     opacity="1.00"
     d=" M 108.35 548.01 C 109.04 548.84 109.27 549.79 109.04 550.86 C 107.44 550.36 107.21 549.41 108.35 548.01 Z"
     id="path923" />
  <path
     fill="#8ac2e8"
     opacity="1.00"
     d=" M 110.43 557.98 C 111.06 558.86 111.26 559.83 111.05 560.90 C 109.45 560.35 109.24 559.38 110.43 557.98 Z"
     id="path925" />
  <path
     fill="#8ac2e8"
     opacity="1.00"
     d=" M 370.24 559.88 C 371.14 560.32 371.71 561.03 371.94 562.02 C 370.17 562.30 369.60 561.58 370.24 559.88 Z"
     id="path927" />
  <path
     fill="#8ac2e8"
     opacity="1.00"
     d=" M 583.06 562.02 C 583.28 561.03 583.84 560.32 584.76 559.87 C 585.39 561.58 584.82 562.29 583.06 562.02 Z"
     id="path929" />
  <path
     fill="#8ac2e8"
     opacity="1.00"
     d=" M 111.32 562.98 C 112.02 563.81 112.26 564.77 112.04 565.85 C 110.44 565.35 110.21 564.39 111.32 562.98 Z"
     id="path931" />
  <path
     fill="#8ac2e8"
     opacity="1.00"
     d=" M 373.18 563.90 C 374.10 564.31 374.70 565.00 374.97 565.98 C 373.20 566.31 372.60 565.62 373.18 563.90 Z"
     id="path933" />
  <path
     fill="#8ac2e8"
     opacity="1.00"
     d=" M 580.04 565.99 C 580.29 565.01 580.88 564.31 581.81 563.90 C 582.39 565.62 581.79 566.31 580.04 565.99 Z"
     id="path935" />
  <path
     fill="#8ac2e8"
     opacity="1.00"
     d=" M 571.90 575.00 C 573.50 572.57 575.72 570.67 577.90 568.79 C 578.04 572.14 574.49 573.80 571.90 575.00 Z"
     id="path937" />
  <path
     fill="#8ac2e8"
     opacity="1.00"
     d=" M 378.14 569.74 C 379.97 571.31 381.75 572.97 383.11 574.99 C 380.91 573.99 377.59 572.76 378.14 569.74 Z"
     id="path939" />
  <path
     fill="#8ac2e8"
     opacity="1.00"
     d=" M 386.01 577.89 C 388.02 579.24 389.68 581.03 391.26 582.86 C 388.23 583.41 387.00 580.09 386.01 577.89 Z"
     id="path941" />
  <path
     fill="#8ac2e8"
     opacity="1.00"
     d=" M 563.74 582.86 C 565.31 581.03 566.97 579.24 568.99 577.89 C 567.99 580.09 566.76 583.40 563.74 582.86 Z"
     id="path943" />
  <path
     fill="#8ac2e8"
     opacity="1.00"
     d=" M 116.39 584.00 C 117.04 584.85 117.27 585.81 117.06 586.88 C 115.45 586.36 115.23 585.40 116.39 584.00 Z"
     id="path945" />
  <path
     fill="#8ac2e8"
     opacity="1.00"
     d=" M 395.01 586.03 C 395.97 586.28 396.68 586.85 397.14 587.75 C 395.41 588.38 394.70 587.81 395.01 586.03 Z"
     id="path947" />
  <path
     fill="#8ac2e8"
     opacity="1.00"
     d=" M 557.90 587.82 C 558.31 586.89 559.00 586.29 559.98 586.03 C 560.31 587.79 559.62 588.38 557.90 587.82 Z"
     id="path949" />
  <path
     fill="#ca8b1e"
     opacity="1.00"
     d=" M 117.18 589.01 C 117.40 589.52 117.84 590.53 118.06 591.03 C 117.84 590.53 117.40 589.52 117.18 589.01 Z"
     id="path951" />
  <path
     fill="#8ac2e8"
     opacity="1.00"
     d=" M 553.88 590.76 C 554.32 589.85 555.04 589.28 556.02 589.06 C 556.30 590.82 555.58 591.39 553.88 590.76 Z"
     id="path953" />
  <path
     fill="#ca8b1e"
     opacity="1.00"
     d=" M 118.27 592.03 C 118.56 592.52 119.15 593.51 119.44 594.00 L 118.89 594.60 C 117.37 594.18 117.17 593.33 118.27 592.03 Z"
     id="path955" />
  <path
     fill="#8ac2e8"
     opacity="1.00"
     d=" M 119.44 594.00 C 120.12 594.86 120.33 595.83 120.07 596.90 C 119.78 596.33 119.19 595.18 118.89 594.60 L 119.44 594.00 Z"
     id="path957" />
  <path
     fill="#ca8b1e"
     opacity="1.00"
     d=" M 120.15 598.96 C 120.37 599.44 120.80 600.42 121.02 600.91 C 120.80 600.42 120.37 599.44 120.15 598.96 Z"
     id="path959" />
  <path
     fill="#ca8b1e"
     opacity="1.00"
     d=" M 122.31 604.97 C 122.50 605.48 122.87 606.49 123.05 606.99 C 122.87 606.49 122.50 605.48 122.31 604.97 Z"
     id="path961" />
  <path
     fill="#ca8b1e"
     opacity="1.00"
     d=" M 123.17 607.91 C 123.37 608.41 123.78 609.40 123.99 609.90 C 123.78 609.40 123.37 608.41 123.17 607.91 Z"
     id="path963" />
  <path
     fill="#8ac2e8"
     opacity="1.00"
     d=" M 507.96 611.85 C 508.45 611.63 509.42 611.19 509.91 610.97 C 509.42 611.19 508.45 611.63 507.96 611.85 Z"
     id="path965" />
  <path
     fill="#8ac2e8"
     opacity="1.00"
     d=" M 503.01 612.66 C 503.85 611.97 504.80 611.73 505.88 611.94 C 505.38 613.54 504.42 613.78 503.01 612.66 Z"
     id="path967" />
  <path
     fill="#ca8b1e"
     opacity="1.00"
     d=" M 125.27 613.00 C 125.47 613.50 125.87 614.50 126.06 615.00 C 125.87 614.50 125.47 613.50 125.27 613.00 Z"
     id="path969" />
  <path
     fill="#8ac2e8"
     opacity="1.00"
     d=" M 497.98 613.79 C 498.47 613.59 499.46 613.19 499.95 612.99 C 499.46 613.19 498.47 613.59 497.98 613.79 Z"
     id="path971" />
  <path
     fill="#8ac2e8"
     opacity="1.00"
     d=" M 463.15 613.96 C 464.20 613.73 465.15 613.96 465.99 614.65 C 464.57 615.79 463.63 615.56 463.15 613.96 Z"
     id="path973" />
  <path
     fill="#8ac2e8"
     opacity="1.00"
     d=" M 489.03 614.65 C 489.85 613.93 490.79 613.70 491.85 613.95 C 491.37 615.54 490.43 615.78 489.03 614.65 Z"
     id="path975" />
  <path
     fill="#ca8b1e"
     opacity="1.00"
     d=" M 126.12 615.91 C 126.36 616.39 126.82 617.36 127.05 617.84 C 126.82 617.36 126.36 616.39 126.12 615.91 Z"
     id="path977" />
  <path
     fill="#ca8b1e"
     opacity="1.00"
     d=" M 127.24 618.63 C 128.67 621.70 129.96 624.83 131.06 628.04 C 127.94 626.15 127.19 622.01 127.24 618.63 Z"
     id="path979" />
  <path
     fill="#8ac2e8"
     opacity="1.00"
     d=" M 355.92 771.05 C 368.41 773.63 381.50 777.51 392.08 784.83 C 379.05 788.51 362.81 781.03 355.92 771.05 Z"
     id="path981" />
  <path
     fill="#8ac2e8"
     opacity="1.00"
     d=" M 280.91 802.92 C 282.38 802.82 283.15 803.50 283.22 804.98 C 281.88 804.91 281.11 804.22 280.91 802.92 Z"
     id="path983" />
  <path
     fill="#8ac2e8"
     opacity="1.00"
     d=" M 609.43 816.43 C 611.11 816.33 614.47 816.12 616.15 816.01 C 607.49 823.79 594.64 827.74 582.93 828.99 C 588.85 821.98 600.65 820.19 609.43 816.43 Z"
     id="path985" />
  <path
     fill="#3c3025"
     opacity="1.00"
     d=" M 597.86 839.84 C 598.45 839.70 599.61 839.40 600.19 839.26 C 599.61 839.40 598.45 839.70 597.86 839.84 Z"
     id="path987" />
  <text
     xml:space="preserve"
     style="font-style:normal;font-variant:normal;font-weight:normal;font-stretch:normal;font-size:95.35102081px;line-height:1.25;font-family:Sylfaen;-inkscape-font-specification:Sylfaen;letter-spacing:0px;word-spacing:0px;fill:#501616;fill-opacity:1;stroke:none;stroke-width:0.99323976;"
     x="-15.188938"
     y="633.52948"
     id="text999"
     transform="matrix(0.73134627,-0.6784063,0.68174516,0.73494568,0,0)"><tspan
       sodipodi:role="line"
       id="tspan997"
       x="-15.188938"
       y="633.52948"
       style="stroke-width:0.99323976;fill:#501616;fill-opacity:1;">X</tspan></text>
  <text
     xml:space="preserve"
     style="font-style:normal;font-variant:normal;font-weight:normal;font-stretch:normal;font-size:107.13873291px;line-height:1.25;font-family:Sylfaen;-inkscape-font-specification:Sylfaen;letter-spacing:0px;word-spacing:0px;fill:#501616;fill-opacity:1;stroke:none;stroke-width:1.11602843;"
     x="13.445606"
     y="-738.25256"
     id="text1003"
     transform="matrix(-0.68581629,0.77376232,-0.73078016,-0.63362428,0,0)"><tspan
       sodipodi:role="line"
       id="tspan1001"
       x="13.445606"
       y="-738.25256"
       style="stroke-width:1.11602843;fill:#501616;">V</tspan></text>
</svg>
